<?xml version="1.0" encoding="UTF-8"?>
<!DOCTYPE svg PUBLIC "-//W3C//DTD SVG 1.1//EN" "http://www.w3.org/Graphics/SVG/1.1/DTD/svg11.dtd">
<svg xmlns="http://www.w3.org/2000/svg" version="1.1" width="156px" height="156px" style="shape-rendering:geometricPrecision; text-rendering:geometricPrecision; image-rendering:optimizeQuality; fill-rule:evenodd; clip-rule:evenodd" xmlns:xlink="http://www.w3.org/1999/xlink">
<g><path style="opacity:0.931" fill="#4153f1" d="M 155.5,38.5 C 155.5,38.8333 155.5,39.1667 155.5,39.5C 143.565,45.4686 131.898,51.9686 120.5,59C 121.167,60 121.833,61 122.5,62C 135.379,68.6264 139.212,78.793 134,92.5C 130.438,98.3645 125.272,101.864 118.5,103C 95.1667,103.667 71.8333,103.667 48.5,103C 46.7818,102.654 45.1151,102.154 43.5,101.5C 33.5,106.833 23.5,112.167 13.5,117.5C 8.80476,108.772 4.13809,100.105 -0.5,91.5C -0.5,90.8333 -0.5,90.1667 -0.5,89.5C 9.48138,86.3368 19.4814,83.1701 29.5,80C 31.5323,72.4265 35.8656,66.5932 42.5,62.5C 48.398,43.2099 61.398,35.0432 81.5,38C 87.08,39.1218 91.7467,41.7884 95.5,46C 102.703,45.5904 109.203,47.4237 115,51.5C 128.399,46.8672 141.899,42.5339 155.5,38.5 Z M 69.5,50.5 C 78.6742,49.7537 85.6742,53.2537 90.5,61C 93.7198,61.1575 96.8865,60.6575 100,59.5C 107.592,60.9928 111.092,65.6595 110.5,73.5C 117.104,72.9479 121.437,75.7812 123.5,82C 122.801,85.0803 121.134,87.4137 118.5,89C 100.833,89.6667 83.1667,89.6667 65.5,89C 67.6641,88.0857 69.6641,86.919 71.5,85.5C 69.0879,80.3413 66.4212,75.3413 63.5,70.5C 60.884,69.4385 58.384,69.7718 56,71.5C 55.4791,61.1961 59.9791,54.1961 69.5,50.5 Z"/></g>
</svg>
